<svg xmlns="http://www.w3.org/2000/svg" role="img" viewBox="0 0 900 525" width="900" height="525"><rect x="16" y="12" width="878" height="486" rx="0" fill="#FFFFFF" stroke="#FFFFFF" stroke-width="2"/><line x1="105" y1="415" x2="795" y2="415" stroke="#8CA0AC" stroke-width="3" stroke-linecap="round" /><line x1="105" y1="415" x2="105" y2="65" stroke="#8CA0AC" stroke-width="3" stroke-linecap="round" /><text x="446" y="482" text-anchor="middle" font-family="Arial, sans-serif" font-size="23" font-weight="400" fill="#454C55">Ansiedad matemática (conceptual)</text><text x="118" y="43" text-anchor="start" font-family="Arial, sans-serif" font-size="23" font-weight="400" fill="#454C55">Rendimiento matemático</text><line x1="142" y1="128" x2="758" y2="373" stroke="#17324D" stroke-width="7" stroke-linecap="round" /><circle cx="155" cy="99.2" r="6.5" fill="#9BACB7" opacity=".91"/><circle cx="183" cy="168.3" r="6.5" fill="#9BACB7" opacity=".91"/><circle cx="221" cy="147.4" r="6.5" fill="#9BACB7" opacity=".91"/><circle cx="248" cy="202.2" r="6.5" fill="#9BACB7" opacity=".91"/><circle cx="283" cy="166.1" r="6.5" fill="#9BACB7" opacity=".91"/><circle cx="314" cy="219.4" r="6.5" fill="#9BACB7" opacity=".91"/><circle cx="346" cy="180.1" r="6.5" fill="#9BACB7" opacity=".91"/><circle cx="375" cy="235.7" r="6.5" fill="#9BACB7" opacity=".91"/><circle cx="407" cy="240.4" r="6.5" fill="#9BACB7" opacity=".91"/><circle cx="438" cy="225.7" r="6.5" fill="#9BACB7" opacity=".91"/><circle cx="468" cy="286.7" r="6.5" fill="#9BACB7" opacity=".91"/><circle cx="492" cy="231.2" r="6.5" fill="#9BACB7" opacity=".91"/><circle cx="525" cy="286.3" r="6.5" fill="#9BACB7" opacity=".91"/><circle cx="553" cy="279.5" r="6.5" fill="#9BACB7" opacity=".91"/><circle cx="588" cy="330.4" r="6.5" fill="#9BACB7" opacity=".91"/><circle cx="621" cy="286.5" r="6.5" fill="#9BACB7" opacity=".91"/><circle cx="659" cy="346.6" r="6.5" fill="#9BACB7" opacity=".91"/><circle cx="696" cy="338.3" r="6.5" fill="#9BACB7" opacity=".91"/><circle cx="728" cy="377.1" r="6.5" fill="#9BACB7" opacity=".91"/><circle cx="758" cy="395.0" r="6.5" fill="#9BACB7" opacity=".91"/><text x="475" y="71" text-anchor="middle" font-family="Arial, sans-serif" font-size="24" font-weight="700" fill="#17324D">Asociación promedio negativa</text><text x="470" y="505" text-anchor="middle" font-family="Arial, sans-serif" font-size="19" font-weight="400" fill="#454C55">Ilustración conceptual · No son datos PISA</text></svg>